<?xml version="1.0" standalone="no"?>
<!DOCTYPE svg PUBLIC "-//W3C//DTD SVG 20010904//EN"
 "http://www.w3.org/TR/2001/REC-SVG-20010904/DTD/svg10.dtd">
<svg version="1.0" xmlns="http://www.w3.org/2000/svg"
 width="1024.000000pt" height="1536.000000pt" viewBox="0 0 1024.000000 1536.000000"
 preserveAspectRatio="xMidYMid meet">

<g transform="translate(0.000000,1536.000000) scale(0.100000,-0.100000)"
fill="#000000" stroke="none">
<path d="M5011 13300 c-110 -40 -225 -157 -272 -278 -16 -41 -24 -86 -27 -159
-7 -173 39 -280 167 -391 138 -119 199 -185 210 -227 19 -71 -18 -153 -104
-235 -56 -53 -129 -149 -159 -207 -78 -155 -74 -364 9 -485 l26 -38 -165 0
c-92 0 -177 5 -193 11 -42 16 -72 48 -79 85 -10 56 26 113 140 219 57 52 120
120 140 150 81 116 95 248 39 365 -40 86 -99 141 -239 225 -183 110 -213 157
-179 282 l18 66 -23 19 c-27 22 -33 22 -98 3 -72 -22 -161 -106 -204 -193 -30
-60 -33 -75 -33 -157 0 -78 4 -97 27 -140 28 -54 101 -129 183 -190 67 -50 85
-74 85 -115 0 -39 -13 -61 -74 -131 -23 -25 -55 -72 -71 -105 -28 -55 -30 -66
-30 -175 0 -114 1 -118 37 -188 l36 -71 -44 0 c-84 0 -339 -30 -552 -66 -589
-98 -964 -243 -1080 -419 -88 -133 -97 -212 -96 -810 1 -481 11 -695 49 -1043
8 -74 15 -138 15 -143 0 -5 -17 -9 -38 -9 -56 0 -151 -51 -207 -111 -106 -113
-142 -292 -95 -475 81 -319 362 -572 747 -673 39 -11 44 -16 81 -94 110 -226
316 -477 541 -660 89 -71 258 -183 347 -229 35 -18 64 -36 64 -39 0 -3 -28
-41 -62 -85 -35 -44 -78 -103 -97 -132 -25 -40 -38 -51 -50 -46 -76 33 -149
38 -256 18 -28 -5 -33 -1 -84 76 -39 60 -74 98 -131 143 -204 162 -390 233
-631 244 -195 9 -348 -22 -504 -100 -223 -111 -414 -326 -491 -552 -25 -73
-28 -93 -28 -220 0 -111 5 -157 22 -224 46 -177 163 -366 320 -519 101 -99
214 -176 382 -262 113 -57 135 -73 235 -170 61 -58 132 -122 159 -141 58 -41
82 -36 -224 -47 -215 -9 -260 -17 -260 -47 0 -28 45 -37 269 -50 125 -8 252
-17 282 -21 98 -12 88 -23 -21 -24 -163 0 -484 -20 -495 -31 -5 -6 -4 -9 5 -9
8 0 65 -4 125 -10 323 -28 728 -43 1165 -44 443 0 544 4 1061 40 97 7 129 18
77 27 -48 9 -253 25 -403 33 -180 9 -134 23 120 36 229 11 809 -1 793 -17 -2
-2 -55 -8 -118 -15 -118 -11 -198 -27 -214 -41 -26 -23 115 -38 724 -76 597
-37 1168 -39 1424 -5 93 12 172 25 177 27 4 3 167 12 361 20 312 14 405 24
357 39 -21 7 -244 26 -324 27 -38 1 -79 5 -89 9 -18 6 -18 7 5 14 13 4 148 11
299 17 321 11 416 21 439 44 15 15 15 17 -3 30 -31 24 -100 29 -358 30 -137 0
-248 2 -248 5 0 3 18 24 41 45 119 116 208 301 245 509 27 156 16 458 -21 583
-5 16 -2 23 14 28 68 21 99 148 81 331 -24 258 -141 458 -320 549 -25 13 -79
34 -120 47 -66 20 -94 23 -235 22 -141 -1 -172 -4 -258 -27 -54 -15 -129 -43
-167 -62 -65 -33 -76 -35 -165 -35 -113 0 -213 -28 -309 -87 -55 -34 -61 -35
-84 -22 -14 8 -27 19 -29 25 -2 7 81 54 189 107 189 93 382 211 504 308 74 59
103 62 171 19 57 -36 111 -39 167 -10 l38 21 42 -21 c24 -11 62 -20 89 -20 41
0 53 5 91 40 38 35 49 40 91 40 90 0 153 52 162 134 5 38 10 45 49 65 24 13
50 34 58 47 23 34 34 95 24 132 -7 25 -5 36 7 48 31 31 52 88 47 127 -7 58
-12 53 -66 -63 -20 -43 -42 -37 -55 16 -7 25 -11 48 -9 49 2 1 41 19 87 39
263 113 562 327 752 537 290 321 459 657 541 1069 30 154 33 459 5 590 -71
334 -247 569 -532 710 -273 136 -584 141 -929 16 -55 -20 -101 -35 -103 -33
-2 2 -6 49 -9 103 -13 213 -61 315 -193 413 -224 165 -655 289 -1251 361 -96
11 -194 23 -218 26 -53 7 -80 47 -63 95 21 59 56 92 210 193 229 151 305 247
318 404 14 170 -65 311 -237 420 -30 19 -78 52 -107 74 -86 65 -125 173 -88
238 36 63 0 108 -70 89 -81 -23 -164 -100 -202 -189 -8 -19 -17 -69 -20 -111
-7 -98 20 -193 74 -261 21 -26 59 -73 86 -105 98 -121 78 -170 -133 -330 -64
-49 -118 -110 -151 -173 -32 -62 -33 -193 -2 -262 l22 -48 -167 6 c-240 7
-267 11 -303 42 -82 69 -77 190 12 304 18 22 87 84 154 138 145 117 225 203
266 285 75 153 59 358 -40 504 -66 96 -126 148 -311 268 -36 22 -82 58 -104
80 -46 45 -86 125 -86 172 0 33 38 121 66 152 21 24 17 66 -8 83 -30 21 -81
20 -147 -4z m-10 -137 c-20 -39 -23 -110 -7 -174 31 -119 76 -168 278 -302
160 -105 212 -156 261 -256 30 -61 32 -73 32 -166 0 -88 -3 -107 -27 -158 -33
-70 -125 -168 -258 -277 -122 -99 -175 -158 -208 -228 -23 -49 -27 -70 -27
-147 0 -104 16 -144 86 -214 l43 -43 -39 8 c-56 10 -87 27 -135 76 -56 57 -86
110 -106 188 -39 152 10 286 160 445 120 126 164 218 153 317 -12 102 -40 140
-230 311 -66 59 -93 93 -117 141 -75 152 -40 340 85 455 47 43 73 54 56 24z
m985 -714 c32 -59 91 -111 216 -193 102 -66 151 -120 175 -190 36 -109 8 -218
-81 -314 -26 -27 -103 -88 -174 -135 -221 -148 -257 -193 -250 -307 3 -53 1
-60 -16 -60 -32 0 -83 62 -101 124 -33 113 2 192 131 297 194 160 224 199 224
293 0 77 -21 121 -99 211 -123 140 -150 249 -94 365 l26 55 8 -47 c4 -26 20
-70 35 -99z m-1758 -26 c32 -61 83 -106 206 -181 61 -36 127 -81 147 -99 80
-72 103 -183 58 -279 -15 -32 -67 -94 -150 -179 -69 -71 -135 -148 -146 -170
-52 -102 -38 -170 54 -265 35 -35 63 -66 63 -67 0 -4 -48 16 -99 41 -59 31
-92 71 -127 157 -48 118 -21 241 77 349 56 62 89 130 89 183 0 72 -34 122
-146 213 -54 44 -112 99 -129 123 -27 38 -30 51 -30 114 1 79 13 111 68 174
l32 36 6 -54 c3 -30 16 -73 27 -96z m1247 -1263 c678 -36 1265 -126 1619 -247
242 -83 394 -178 445 -280 26 -53 41 -149 41 -280 0 -95 -1 -102 -21 -108 -12
-4 -60 -46 -108 -94 -140 -138 -199 -285 -189 -469 11 -195 94 -314 255 -364
l73 -23 0 -75 c0 -75 -15 -330 -25 -425 -3 -27 -10 -97 -15 -155 -17 -168 -49
-410 -63 -469 l-12 -54 -59 -14 c-191 -43 -339 -188 -377 -371 -16 -81 -7
-206 21 -265 26 -55 106 -131 156 -147 40 -14 40 -16 -9 -99 -40 -67 -130
-166 -189 -208 l-46 -32 -16 57 c-16 58 -48 98 -108 135 -23 14 -26 21 -21 56
8 60 -4 92 -54 138 l-45 42 17 45 c24 63 16 134 -20 187 -24 33 -27 44 -17 57
48 66 53 133 16 202 l-26 47 27 52 c34 65 36 128 5 193 l-22 47 29 48 c36 61
38 138 5 200 l-22 43 25 51 c38 74 43 134 16 195 l-22 49 28 20 c85 60 123
126 123 212 0 121 -77 200 -207 211 -36 3 -66 10 -68 16 -1 6 -10 47 -20 91
-78 365 -449 664 -876 707 -539 54 -1012 -274 -1104 -767 -13 -67 -16 -124
-12 -225 5 -160 29 -261 92 -395 l42 -91 -86 43 c-216 109 -423 109 -586 1
-27 -18 -54 -37 -60 -42 -8 -6 -31 7 -69 38 -111 90 -213 126 -361 126 -183 0
-321 -72 -543 -282 -141 -135 -197 -177 -287 -220 -65 -30 -78 -33 -170 -33
-152 0 -228 32 -273 113 -49 89 -37 205 28 267 34 33 36 31 15 -18 -23 -55
-19 -145 8 -189 46 -78 153 -125 255 -115 74 8 79 15 63 85 -101 462 -148
1057 -138 1750 6 475 13 508 118 607 203 190 814 335 1724 410 308 25 787 31
1100 15z m2961 -835 c348 -60 584 -262 687 -590 39 -125 50 -226 44 -413 -8
-282 -64 -496 -198 -765 -106 -212 -250 -407 -430 -582 -238 -232 -479 -379
-780 -479 -162 -54 -265 -76 -357 -76 -98 0 -126 8 -172 47 -52 45 -71 92 -72
173 0 95 32 171 98 238 67 67 110 85 256 111 562 100 1031 502 1197 1025 94
295 54 583 -104 755 -181 195 -502 203 -721 19 -82 -69 -137 -148 -180 -258
-39 -101 -80 -125 -161 -96 -65 23 -109 64 -138 128 -47 105 -31 273 38 391
59 101 232 229 394 293 216 85 413 111 599 79z m-2616 -340 c101 -27 259 -108
336 -173 155 -130 259 -303 299 -498 19 -92 22 -262 5 -354 -55 -319 -283
-565 -616 -666 -79 -24 -106 -27 -239 -28 -172 -1 -257 14 -388 70 -115 50
-204 112 -296 210 -68 72 -91 105 -136 198 -69 141 -85 202 -91 351 -5 98 -2
138 15 219 37 182 158 380 299 491 116 92 264 164 391 190 91 19 334 13 421
-10z m2533 -200 c96 -25 180 -93 227 -184 68 -134 66 -372 -4 -584 -125 -376
-486 -732 -864 -851 -46 -14 -87 -26 -92 -26 -5 0 -4 14 1 33 32 109 81 566
100 936 l12 226 46 46 c25 25 78 89 116 143 111 155 208 235 319 262 68 16 73
16 139 -1z m-1609 -656 c35 -41 35 -96 0 -138 -29 -35 -89 -57 -128 -47 -22 5
-26 12 -26 46 0 34 14 123 25 158 3 7 23 12 54 12 43 0 53 -4 75 -31z m-108
-289 c29 0 30 -13 4 -50 -34 -47 -46 -113 -31 -167 7 -27 21 -58 32 -69 17
-19 18 -23 6 -36 -55 -54 -67 -165 -27 -236 20 -35 22 -46 12 -60 -55 -76 -65
-164 -28 -234 l24 -46 -26 -36 c-39 -55 -43 -138 -8 -188 l25 -38 -19 -42
c-36 -78 -17 -175 42 -221 26 -21 28 -26 18 -51 -27 -72 10 -188 65 -202 27
-7 28 -9 25 -70 -1 -32 5 -49 27 -75 40 -49 52 -56 115 -70 32 -6 58 -14 58
-18 0 -3 -20 -18 -43 -34 -23 -15 -78 -54 -122 -87 -101 -75 -312 -196 -434
-250 -388 -170 -827 -243 -1315 -219 -474 23 -894 139 -1229 339 -318 189
-574 465 -732 787 l-50 102 -75 17 c-394 88 -683 328 -745 621 -16 75 -20 183
-6 183 4 0 11 -26 14 -57 16 -183 158 -388 357 -518 284 -185 618 -233 920
-130 178 61 390 233 452 370 6 14 14 25 17 25 3 0 21 -31 40 -69 128 -259 413
-472 763 -570 255 -71 580 -85 825 -35 320 65 584 240 686 454 53 110 49 279
-8 336 -33 33 -51 22 -84 -50 -35 -78 -90 -126 -184 -161 -60 -23 -93 -28
-198 -33 -195 -7 -329 30 -496 137 -67 43 -240 201 -221 201 4 0 33 -16 66
-35 70 -41 176 -77 291 -100 128 -26 365 -17 484 19 242 72 433 217 551 416
40 67 85 177 103 249 2 7 10 11 19 7 9 -3 27 -6 40 -6z m84 -114 c11 -36 2
-93 -20 -126 -9 -13 -13 -12 -30 9 -26 30 -26 87 0 129 23 38 34 35 50 -12z
m-4211 -193 c13 -76 28 -146 33 -155 23 -46 -62 8 -93 58 -20 32 -24 52 -24
111 0 62 3 75 24 97 14 14 27 26 30 26 3 0 17 -62 30 -137z m1276 52 l60 -30
-125 -6 c-88 -5 -146 -13 -195 -29 -94 -30 -237 -103 -308 -157 -33 -24 -61
-42 -64 -40 -6 6 103 133 150 174 47 41 112 79 179 104 42 15 73 19 148 16 83
-2 104 -7 155 -32z m627 -25 c179 -26 364 -175 467 -377 12 -24 20 -43 18 -43
-1 0 -50 46 -108 103 -82 80 -125 113 -199 153 -115 62 -196 91 -298 105 -42
6 -88 13 -102 16 l-25 5 25 11 c24 10 124 35 145 36 6 0 40 -4 77 -9z m2297
-136 c10 -39 9 -51 -6 -82 -10 -20 -23 -38 -30 -40 -15 -4 -36 68 -27 94 29
89 46 96 63 28z m-19 -273 c15 -28 12 -77 -5 -111 -18 -35 -23 -36 -41 -12
-18 24 -17 93 2 120 19 27 30 28 44 3z m0 -304 c10 -36 9 -50 -4 -80 -25 -61
-56 -41 -56 36 0 90 39 118 60 44z m0 -249 c22 -36 26 -88 9 -119 -8 -17 -13
-18 -25 -8 -21 17 -44 64 -44 88 0 25 20 71 32 71 4 0 17 -15 28 -32z m1160
-234 c0 -8 7 -28 14 -43 14 -27 14 -29 -15 -50 -43 -32 -78 -91 -82 -139 -4
-40 -7 -44 -58 -70 -33 -16 -66 -43 -84 -68 l-30 -42 -61 5 c-61 6 -104 -7
-147 -45 -16 -14 -19 -13 -40 5 -36 33 -63 43 -119 43 l-53 0 36 29 c43 35
119 147 159 234 l30 63 128 22 c70 12 168 34 217 50 94 30 105 31 105 6z
m-1099 -55 c23 -31 32 -70 20 -89 -8 -12 -13 -11 -31 5 -33 30 -42 53 -35 86
8 34 21 34 46 -2z m1163 -85 c14 -37 6 -76 -23 -105 -37 -37 -71 -39 -71 -5 0
38 16 71 47 100 32 30 39 32 47 10z m-1033 -140 c20 -23 29 -58 20 -73 -10
-16 -68 5 -81 29 -6 10 -10 35 -10 55 l0 36 28 -15 c15 -8 34 -22 43 -32z
m907 -82 c4 -27 -19 -66 -52 -87 -25 -16 -96 -12 -96 5 0 15 53 72 85 92 38
23 59 20 63 -10z m-684 -58 c17 -7 21 -31 7 -52 -7 -11 -14 -11 -42 3 -61 31
-66 39 -28 46 19 4 37 7 41 8 3 0 13 -2 22 -5z m182 -50 c42 -20 43 -39 4 -59
-37 -19 -70 -19 -98 1 -26 18 -28 31 -5 56 20 22 54 23 99 2z m263 5 c38 -13
36 -26 -9 -56 -39 -27 -77 -29 -108 -7 -30 21 -28 31 11 54 37 23 61 25 106 9z
m-4924 -319 c177 -20 301 -64 443 -156 187 -122 291 -278 364 -545 19 -70 23
-109 23 -234 0 -144 -1 -152 -26 -197 -15 -26 -24 -49 -21 -52 14 -15 55 -3
86 24 48 43 61 86 61 213 0 59 3 107 7 107 9 0 66 -48 100 -85 30 -31 70 -102
83 -145 12 -40 25 -52 41 -39 53 44 -51 256 -169 346 -34 25 -68 53 -75 62
-23 28 -83 234 -71 246 5 5 45 10 88 10 69 0 85 -4 154 -38 62 -31 87 -50 123
-95 92 -117 137 -262 115 -378 -14 -78 -14 -94 1 -94 19 0 68 52 68 72 0 20 1
21 24 12 21 -8 84 -97 109 -152 29 -68 47 -188 36 -246 -9 -47 -43 -116 -58
-116 -4 0 -15 18 -25 40 -31 70 -97 160 -144 195 -66 51 -94 44 -53 -13 10
-15 36 -63 58 -107 114 -228 134 -409 62 -552 l-32 -63 -18 38 c-54 107 -129
177 -359 332 -274 185 -381 310 -568 665 -146 278 -247 414 -405 540 -90 72
-196 130 -302 166 -60 20 -89 24 -200 24 l-130 0 -84 -42 c-75 -37 -81 -39
-60 -16 48 52 186 147 274 189 98 46 184 72 285 84 94 11 96 11 195 0z m4807
-81 c145 -30 295 -141 361 -267 55 -105 79 -205 80 -341 1 -64 -2 -129 -6
-145 -8 -30 -11 -30 -74 -5 -18 7 -36 10 -40 6 -4 -4 -1 -33 6 -65 59 -262 64
-486 16 -689 -9 -38 -41 -118 -71 -180 -154 -314 -451 -481 -969 -544 -144
-18 -474 -15 -620 5 -233 33 -424 94 -504 162 -44 38 -81 99 -81 135 0 32 22
99 32 99 5 0 37 -14 71 -31 260 -132 685 -208 998 -179 334 30 601 135 777
304 114 109 182 220 228 373 24 77 27 106 28 233 1 171 -19 558 -34 648 -34
203 -125 360 -262 452 l-60 40 35 0 c20 0 60 -5 89 -11z m-167 -59 c116 -57
205 -167 255 -319 29 -86 32 -106 36 -260 2 -91 9 -249 15 -351 12 -200 4
-284 -41 -415 -50 -144 -182 -296 -339 -389 -94 -57 -263 -116 -396 -141 -123
-23 -367 -30 -506 -16 -304 31 -632 135 -685 217 -22 32 -21 144 2 209 48 143
180 270 351 340 204 82 528 74 815 -20 106 -35 248 -103 341 -164 104 -68 122
-68 70 2 -52 69 -188 156 -328 208 -30 11 -55 24 -55 28 0 15 218 34 310 27
49 -4 94 -4 101 -1 17 11 -30 54 -68 61 -18 3 -33 8 -33 10 0 2 15 23 33 47
43 56 69 127 65 174 l-3 38 -20 -33 c-69 -116 -103 -158 -142 -180 -38 -21
-173 -46 -173 -32 0 3 11 21 25 40 25 33 32 60 18 60 -5 0 -21 -9 -38 -21
-117 -79 -229 -108 -352 -90 -90 13 -146 36 -197 81 -43 38 -66 78 -66 115 0
32 6 31 95 -4 95 -39 167 -51 231 -41 157 25 244 138 244 314 0 183 -76 300
-203 312 -72 7 -167 25 -172 34 -2 4 28 24 68 46 69 37 76 39 162 39 81 0 95
-3 143 -29 92 -51 156 -152 188 -295 13 -58 16 -105 11 -213 -3 -76 -1 -138 3
-138 16 0 59 61 70 98 21 70 23 172 5 262 -26 129 -63 200 -145 282 -38 38
-70 71 -70 73 0 8 108 47 163 60 81 18 138 12 212 -25z m-3088 -70 c55 -22
239 -125 262 -145 2 -2 -43 -66 -99 -142 -56 -76 -132 -186 -168 -246 -42 -67
-73 -106 -82 -104 -17 3 -30 29 -60 122 -26 84 -94 189 -156 244 l-45 40 52
78 c28 43 74 104 102 136 48 56 52 58 86 52 20 -4 68 -20 108 -35z m2033 -99
c103 -86 224 -131 348 -131 118 0 184 -63 185 -178 1 -99 -36 -165 -106 -191
-76 -29 -339 6 -532 70 -215 72 -402 199 -464 316 -16 31 -16 31 37 38 68 9
305 70 387 99 39 13 74 25 78 25 4 1 35 -21 67 -48z m-3926 -1 c153 -40 296
-130 428 -269 97 -101 174 -216 286 -427 115 -218 154 -283 209 -352 111 -139
198 -214 393 -338 215 -137 300 -236 300 -351 0 -62 -17 -109 -51 -140 -99
-91 -350 -114 -574 -53 -218 59 -511 237 -690 419 -33 34 -65 61 -72 61 -22 0
-198 95 -305 166 -70 46 -140 105 -219 183 -134 134 -199 234 -253 389 -95
274 -53 507 114 634 126 95 270 120 434 78z m2496 -36 c65 -9 239 -18 401 -21
l287 -6 12 -26 c45 -99 177 -244 290 -317 88 -56 201 -110 295 -138 l70 -22 7
-47 c7 -50 42 -120 77 -151 30 -27 18 -36 -50 -36 -77 0 -196 -25 -278 -57
-102 -41 -181 -92 -256 -168 -121 -120 -173 -254 -161 -413 6 -79 5 -83 -23
-122 -16 -23 -32 -58 -36 -78 l-6 -38 -317 -12 c-320 -12 -532 -29 -532 -44 0
-4 3 -8 8 -8 25 -1 519 -41 625 -52 70 -7 127 -16 127 -21 0 -8 -1211 0 -1238
9 -8 2 -1 18 21 47 50 65 91 202 91 302 0 44 -3 100 -7 125 -7 45 -7 45 40 80
118 87 124 283 15 504 l-49 98 76 119 c114 178 368 510 389 509 4 -1 59 -8
122 -16z"/>
<path d="M4176 10994 c-314 -24 -557 -63 -814 -129 -287 -75 -470 -152 -538
-228 -32 -35 -36 -44 -31 -80 17 -123 283 -236 747 -316 138 -24 461 -66 620
-81 457 -42 1359 -40 1795 5 703 72 1188 180 1318 295 102 89 55 175 -148 271
-290 138 -741 231 -1300 269 -307 20 -369 6 -105 -25 509 -59 960 -176 1177
-304 142 -84 150 -102 26 -60 -214 72 -567 147 -873 184 -441 53 -1344 58
-1858 9 -387 -36 -768 -116 -1028 -214 -59 -22 -109 -38 -111 -36 -12 11 108
96 204 145 253 127 701 229 1256 285 76 8 141 17 144 20 11 10 -305 4 -481
-10z m1319 -304 c243 -17 399 -40 550 -81 80 -22 178 -59 171 -66 -2 -3 -49 2
-103 11 -350 55 -587 70 -1063 70 -410 0 -604 -9 -850 -40 -124 -15 -328 -48
-375 -60 -46 -11 -25 13 33 39 141 62 383 105 722 126 183 12 753 12 915 1z
m-1255 -235 c355 -20 702 -44 707 -49 2 -2 -26 -7 -64 -10 -37 -3 -129 -11
-203 -17 -165 -14 -387 -6 -565 22 -119 18 -284 55 -294 65 -8 8 158 4 419
-11z"/>
<path d="M2721 10287 c-26 -33 81 -95 244 -142 109 -32 383 -72 410 -61 19 8
18 9 -5 16 -14 4 -107 33 -207 64 -100 30 -229 74 -287 96 -115 43 -138 47
-155 27z"/>
<path d="M7310 10271 c-52 -16 -151 -47 -220 -69 -69 -22 -176 -54 -237 -72
-62 -18 -121 -39 -130 -46 -16 -12 -15 -13 12 -13 106 -1 338 45 477 95 106
38 218 102 218 126 0 12 -16 9 -120 -21z"/>
<path d="M2915 9350 c-27 -30 -16 -133 24 -215 103 -209 357 -284 579 -171
132 67 241 223 190 274 -28 28 -58 12 -136 -67 -62 -62 -89 -83 -137 -101
-196 -74 -385 25 -426 222 -6 29 -16 59 -21 66 -16 18 -53 15 -73 -8z"/>
<path d="M5455 9899 c-294 -58 -524 -247 -616 -508 -38 -108 -53 -246 -39
-353 37 -275 190 -484 441 -602 124 -59 184 -71 354 -70 136 0 158 3 235 28
123 41 211 90 291 164 170 158 237 304 246 537 7 161 -13 253 -84 395 -40 80
-62 110 -143 191 -104 104 -171 146 -315 195 -66 22 -101 27 -200 30 -66 2
-142 -1 -170 -7z m340 -94 c313 -84 514 -350 515 -681 0 -190 -60 -349 -182
-479 -81 -87 -149 -134 -252 -175 -100 -40 -168 -52 -296 -52 -181 -1 -328 56
-456 175 -123 115 -192 249 -215 423 -20 150 5 285 79 429 49 96 199 246 297
297 67 34 175 71 240 81 55 9 209 -1 270 -18z"/>
<path d="M5054 9214 c-11 -43 1 -117 30 -179 36 -79 157 -198 248 -243 154
-76 327 -80 493 -11 94 39 174 110 214 191 36 70 38 98 13 121 -34 31 -69 22
-98 -25 -57 -93 -134 -154 -235 -188 -53 -18 -80 -21 -154 -18 -101 5 -170 30
-257 95 -59 43 -137 156 -145 211 -9 61 -19 72 -63 72 -34 0 -41 -4 -46 -26z"/>
<path d="M1950 6105 c-25 -8 -64 -30 -87 -50 -133 -113 -126 -335 18 -587 146
-255 399 -475 601 -523 81 -19 263 -19 398 0 98 14 284 66 304 86 5 5 -18 37
-56 77 -92 97 -148 180 -246 360 -46 86 -102 183 -123 214 -127 187 -306 336
-485 404 -87 33 -252 43 -324 19z"/>
<path d="M3205 4959 c-121 -50 -343 -91 -544 -102 l-44 -2 29 -34 c64 -77 318
-263 444 -326 80 -40 254 -100 334 -115 85 -16 237 -8 292 15 163 68 107 232
-129 382 -50 32 -141 91 -201 131 -60 39 -114 72 -120 71 -6 0 -33 -9 -61 -20z"/>
<path d="M1842 4433 c-28 -22 -21 -50 13 -59 60 -15 117 19 85 51 -26 25 -73
29 -98 8z"/>
<path d="M8336 4427 c-41 -30 17 -70 73 -51 19 7 26 17 26 34 0 22 -5 25 -40
28 -23 2 -48 -3 -59 -11z"/>
<path d="M2052 4422 c-7 -5 -10 -16 -6 -25 11 -30 74 -28 74 3 0 26 -40 39
-68 22z"/>
<path d="M8010 4275 c0 -11 12 -15 45 -15 33 0 45 4 45 15 0 11 -12 15 -45 15
-33 0 -45 -4 -45 -15z"/>
</g>
</svg>
