<svg width="72" height="112" viewBox="0 0 72 112" xmlns="http://www.w3.org/2000/svg">
<defs>
<style>
  path {
    fill: black;
  }
  @media (prefers-color-scheme: dark) {
    path {
      fill: white;
    }
  }
</style>
</defs>
<path fill-rule="evenodd" clip-rule="evenodd" d="M31.9448 4.29325C36.5393 3.44239 41.2706 3.69498 45.748 5.03148C50.2256 6.36811 54.3222 8.75084 57.6985 11.9812C61.0746 15.2115 63.6353 19.1983 65.1684 23.6122C66.7014 28.0264 67.1632 32.7423 66.5161 37.37C66.4013 38.1903 65.6431 38.7624 64.8228 38.6478C64.0026 38.5329 63.4304 37.7748 63.545 36.9545C64.1263 32.7975 63.7109 28.5614 62.3339 24.5963C60.9568 20.6314 58.6571 17.05 55.6245 14.1484C52.5917 11.2468 48.9123 9.10687 44.8904 7.90623C40.8684 6.70565 36.6179 6.47865 32.4907 7.24299C28.3636 8.00736 24.4767 9.74102 21.1514 12.3023C17.8262 14.8635 15.1573 18.179 13.3647 21.9742C11.5722 25.7696 10.7069 29.9373 10.841 34.1325C10.9727 38.2496 12.2917 42.464 14.3124 46.151L51.6054 91.7981C52.1295 92.4396 52.0343 93.385 51.393 93.9092C50.7515 94.4333 49.8061 94.3383 49.282 93.6968L11.8932 47.9308C11.8221 47.8438 11.7634 47.7507 11.7149 47.6544C9.49007 43.6149 7.99279 38.9195 7.8427 34.2289C7.69338 29.5585 8.65614 24.9188 10.6517 20.6936C12.6472 16.4684 15.6185 12.7776 19.3203 9.92616C23.0223 7.07469 27.3501 5.1442 31.9448 4.29325Z" />
<path fill-rule="evenodd" clip-rule="evenodd" d="M42.9063 107.657C38.3117 108.508 33.5804 108.256 29.103 106.919C24.6254 105.582 20.5289 103.2 17.1525 99.9694C13.7763 96.739 11.2157 92.7524 9.68267 88.3383C8.14963 83.9241 7.68772 79.2084 8.33493 74.5806C8.44976 73.7604 9.20795 73.1882 10.0282 73.3028C10.8483 73.4178 11.4206 74.1759 11.306 74.9961C10.7246 79.1532 11.1401 83.3891 12.5172 87.3543C13.8943 91.3193 16.1938 94.9005 19.2266 97.8022C22.2594 100.704 25.9387 102.844 29.9606 104.044C33.9826 105.245 38.2331 105.472 42.3603 104.708C46.4874 103.943 50.3744 102.21 53.6996 99.6483C57.0248 97.087 59.6938 93.7715 61.4863 89.9763C63.2788 86.181 64.1442 82.0133 64.01 77.8181C63.8786 73.7097 62.5655 69.5045 60.5521 65.8231L41.5099 44.2779C40.9615 43.6572 41.0199 42.7089 41.6404 42.1603C42.261 41.6118 43.2093 41.6702 43.7579 42.2908L62.9227 63.9755C63.0256 64.0919 63.1069 64.2201 63.1674 64.3548C65.3746 68.3812 66.859 73.0535 67.0083 77.7217C67.1577 82.3921 66.1949 87.0317 64.1994 91.257C62.2039 95.4821 59.2325 99.173 55.5308 102.024C51.8288 104.876 47.5009 106.806 42.9063 107.657Z" />
<circle cx="65.085" cy="35.2251" r="4" fill="#9DC7C8"/>
<circle cx="10.085" cy="72.2251" r="4" fill="#9DC7C8"/>
</svg>
